<svg width="927" height="349" viewBox="0 0 927 349" fill="none" xmlns="http://www.w3.org/2000/svg">
<path d="M196.522 7.43042L141.141 159.974C131.299 187.071 108.653 187.071 98.811 159.974L43.4293 7.43042H0L67.9015 186.095C77.3357 215.692 98.3322 226.563 119.134 226.563C139.935 226.563 159.052 216.668 172.901 184.659L240.679 7.43042H196.522Z" fill="#48EEDF"/>
<path d="M422.979 31.2464C402.532 11.8992 374.974 0 344.668 0C281.767 0 230.606 51.1611 230.606 114.062C230.606 176.962 281.767 228.124 344.668 228.124C374.974 228.124 402.532 216.224 422.979 196.877V221.864H459.386V7.98007H422.979V31.2287V31.2464ZM344.668 191.131C302.178 191.131 267.598 156.569 267.598 114.062C267.598 71.5546 302.161 37.0098 344.668 37.0098C387.175 37.0098 421.737 71.5723 421.737 114.062C421.737 156.551 387.175 191.131 344.668 191.131Z" fill="#48EEDF"/>
<path d="M673.181 28.6928V120.96C669.226 159.779 636.331 190.156 596.537 190.156C556.743 190.156 522.198 158.254 519.644 118.034V7.6432H482.475V113.104C482.475 146.408 496.821 176.43 519.644 197.267C539.949 215.852 566.939 227.166 596.537 227.166C626.134 227.166 652.911 215.941 673.181 197.516V249.847H514.253C496.396 249.847 481.925 264.318 481.925 282.175V321.685C481.925 336.635 494.037 348.747 508.986 348.747H711.254V312.34H518.332V286.272H680.877C697.653 286.272 711.254 272.67 711.254 255.894V7.57227H673.181V28.6751V28.6928Z" fill="#48EEDF"/>
<path d="M890.753 7.60764V132.611C890.753 143.535 888.093 153.448 882.791 162.35C877.542 171.164 870.466 178.151 861.635 183.382C861.511 183.435 861.369 183.488 861.245 183.559C852.431 188.791 842.571 191.415 831.683 191.433C820.794 191.433 810.935 188.791 802.121 183.559C801.979 183.471 801.855 183.435 801.731 183.382C792.882 178.151 785.824 171.164 780.575 162.35C775.255 153.448 772.613 143.535 772.613 132.611V7.55444H736.419V140.573C736.419 156.817 740.338 171.536 748.158 184.747C755.979 197.959 766.548 208.475 779.83 216.313C793.112 224.133 810.119 228.07 835.283 228.07C851.367 228.07 870.306 224.151 883.589 216.313C896.871 208.493 907.44 197.959 915.261 184.747C923.081 171.536 927 156.817 927 140.573V7.60764H890.806H890.753Z" fill="#48EEDF"/>
</svg>
