<svg width="134" height="42" viewBox="0 0 1920 607" fill="none" xmlns="http://www.w3.org/2000/svg"><path d="M4.4417 474.994H17.7219C39.0779 474.994 58.4149 466.335 72.4129 452.337C86.4558 438.339 95.0699 419.002 95.0699 397.646L95.0699 325.053C95.0699 312.177 101.216 300.691 110.773 293.423C111.042 293.244 111.266 293.064 111.491 292.84C112.298 292.032 112.792 290.911 112.792 289.699C112.792 287.232 110.818 285.258 108.35 285.258H95.0699C73.7139 285.258 54.3769 293.872 40.3789 307.87C26.3809 321.913 17.7219 341.25 17.7219 362.606L17.7219 435.153C17.7219 448.074 11.5304 459.605 1.97409 466.873C1.88436 466.963 1.79464 467.008 1.70491 467.052C0.673004 467.905 -6.07951e-08 469.161 0 470.552C1.07862e-07 473.02 2.01897 474.994 4.4417 474.994Z" fill="url(#paint0_linear_1_32)" /><path d="M99.1516 474.997H112.432C133.788 474.997 153.125 466.338 167.123 452.34C181.166 438.342 189.78 419.005 189.78 397.649L189.78 230.166C189.78 217.29 195.926 205.804 205.483 198.536C205.752 198.357 205.976 198.177 206.201 197.953C207.008 197.145 207.502 196.024 207.502 194.812C207.502 192.345 205.528 190.371 203.06 190.371H189.78C168.424 190.371 149.087 198.985 135.089 212.983C121.091 227.026 112.432 246.363 112.432 267.719L112.432 435.157C112.432 448.078 106.24 459.608 96.6839 466.876C96.5942 466.966 96.5045 467.011 96.4148 467.056C95.3829 467.908 94.7098 469.165 94.7098 470.555C94.7098 473.023 96.7288 474.997 99.1516 474.997Z" fill="url(#paint1_linear_1_32)" /><path d="M193.774 474.995H207.054C228.41 474.995 247.747 466.336 261.745 452.338C275.788 438.34 284.402 419.003 284.402 397.647V135.273C284.402 122.397 290.549 110.912 300.105 103.643C300.375 103.464 300.599 103.284 300.823 103.06C301.631 102.252 302.124 101.131 302.124 99.9195C302.124 97.4519 300.15 95.4778 297.683 95.4778H284.402C263.046 95.4778 243.709 104.092 229.711 118.09C215.713 132.133 207.054 151.47 207.054 172.826V435.154C207.054 448.075 200.863 459.606 191.307 466.874C191.217 466.964 191.127 467.009 191.037 467.053C190.005 467.906 189.333 469.162 189.333 470.553C189.333 473.021 191.351 474.995 193.774 474.995Z" fill="url(#paint2_linear_1_32)" /><path d="M288.439 474.995H301.719C323.075 474.995 342.412 466.336 356.41 452.338C370.453 438.34 379.067 419.003 379.067 397.647L379.067 40.4285C379.067 27.5521 385.213 16.0665 394.77 8.79832C395.039 8.61886 395.263 8.43941 395.487 8.21508C396.295 7.40751 396.789 6.28588 396.789 5.07452C396.789 2.60692 394.815 0.632812 392.347 0.632813L379.067 0.632813C357.711 0.632814 338.374 9.24698 324.376 23.245C310.378 37.2879 301.719 56.6249 301.719 77.9809V435.155C301.719 448.076 295.527 459.606 285.971 466.875C285.881 466.964 285.792 467.009 285.702 467.054C284.67 467.906 283.997 469.163 283.997 470.554C283.997 473.021 286.016 474.995 288.439 474.995Z" fill="url(#paint3_linear_1_32)" /><path d="M754.248 103.605L665.866 346.057C650.159 389.124 614.019 389.124 598.313 346.057L509.931 103.605H440.623L548.985 387.574C564.041 434.615 597.549 451.893 630.745 451.893C663.942 451.893 694.449 436.166 716.552 385.291L824.716 103.605H754.248Z" fill="#08173B" /><path d="M1115.64 141.458C1083.01 110.708 1039.03 91.7957 990.668 91.7957C890.287 91.7957 808.639 173.111 808.639 273.085C808.639 373.059 890.287 454.374 990.668 454.374C1039.03 454.374 1083.01 435.461 1115.64 404.71V444.424H1173.74V104.479H1115.64V141.458ZM990.668 395.578C922.86 395.578 867.674 340.645 867.674 273.085C867.674 205.524 922.832 150.619 990.668 150.619C1058.5 150.619 1113.66 205.552 1113.66 273.085C1113.66 340.617 1058.5 395.578 990.668 395.578Z" fill="#08173B" /><path d="M1862.15 103.889V302.569C1862.15 319.931 1857.91 335.687 1849.44 349.836C1841.07 363.844 1829.78 374.949 1815.69 383.263C1815.49 383.348 1815.26 383.433 1815.06 383.546C1801 391.86 1785.26 396.032 1767.88 396.06C1750.5 396.06 1734.78 391.86 1720.71 383.546C1720.48 383.404 1720.28 383.348 1720.09 383.263C1705.96 374.949 1694.7 363.844 1686.32 349.836C1677.84 335.687 1673.61 319.931 1673.61 302.569V103.805H1615.85V315.224C1615.85 341.041 1622.11 364.436 1634.59 385.434C1647.07 406.432 1663.93 423.146 1685.14 435.604C1706.33 448.034 1733.47 454.291 1773.63 454.291C1799.3 454.291 1829.53 448.062 1850.72 435.604C1871.92 423.175 1888.78 406.432 1901.27 385.434C1913.74 364.436 1920 341.041 1920 315.224V103.889H1862.15Z" fill="#08173B" /><path d="M1514.87 286.166V105.293H1575.6V437.583C1575.6 488.268 1549.24 524.371 1514.87 559.701C1482.54 589.093 1439.83 606.999 1392.62 606.999C1382.77 606.999 1373.1 606.213 1363.67 604.701V544.386C1373 546.723 1382.71 547.962 1392.62 547.962C1456.09 547.962 1508.56 499.505 1514.87 437.583V408.285C1482.54 437.677 1439.83 455.583 1392.62 455.583C1345.4 455.583 1302.34 437.535 1269.95 407.89C1233.55 374.651 1210.66 326.759 1210.66 273.635V105.406H1269.95V281.499C1274.03 345.656 1329.13 396.546 1392.62 396.546C1456.09 396.546 1508.56 348.088 1514.87 286.166Z" fill="#08173B" /><defs><linearGradient id="paint0_linear_1_32" x1="-62.4448" y1="554.122" x2="-151.384" y2="-21.9825" gradientUnits="userSpaceOnUse"><stop offset="0.15" stop-color="#0ACDA7" /><stop offset="0.85" stop-color="#0F53F2" /></linearGradient><linearGradient id="paint1_linear_1_32" x1="-62.4448" y1="554.122" x2="-151.384" y2="-21.9825" gradientUnits="userSpaceOnUse"><stop offset="0.15" stop-color="#0ACDA7" /><stop offset="0.85" stop-color="#0F53F2" /></linearGradient><linearGradient id="paint2_linear_1_32" x1="-62.4448" y1="554.122" x2="-151.384" y2="-21.9825" gradientUnits="userSpaceOnUse"><stop offset="0.15" stop-color="#0ACDA7" /><stop offset="0.85" stop-color="#0F53F2" /></linearGradient><linearGradient id="paint3_linear_1_32" x1="-62.4448" y1="554.122" x2="-151.384" y2="-21.9825" gradientUnits="userSpaceOnUse"><stop offset="0.15" stop-color="#0ACDA7" /><stop offset="0.85" stop-color="#0F53F2" /></linearGradient></defs></svg>