<svg width="99" height="37" viewBox="0 0 99 37" fill="none" xmlns="http://www.w3.org/2000/svg"
>
<path d="M21.2601 1.37012L15.2688 17.5875C14.2041 20.4682 11.7543 20.4682 10.6895 17.5875L4.69825 1.37012H0L7.3457 20.3645C8.36631 23.5111 10.6377 24.6668 12.8881 24.6668C15.1384 24.6668 17.2065 23.6148 18.7048 20.2118L26.037 1.37012H21.2601Z" fill="#3A78F8"/>
<path d="M45.4081 3.37868C43.2036 1.28666 40.2323 0 36.9647 0C30.1829 0 24.6667 5.53206 24.6667 12.3335C24.6667 19.135 30.1829 24.6671 36.9647 24.6671C40.2323 24.6671 43.2036 23.3804 45.4081 21.2884V23.9902H49.3334V0.862887H45.4081V3.37676V3.37868ZM36.9647 20.6671C32.3836 20.6671 28.6552 16.9298 28.6552 12.3335C28.6552 7.73722 32.3817 4.00188 36.9647 4.00188C41.5478 4.00188 45.2743 7.73914 45.2743 12.3335C45.2743 16.9279 41.5478 20.6671 36.9647 20.6671Z" fill="#3A78F8"/>
<path d="M71.2753 3.57582V13.2117C70.85 17.2656 67.3117 20.4381 63.0315 20.4381C58.7512 20.4381 55.0356 17.1064 54.7609 12.9061V1.37753H50.763V12.3912C50.763 15.8693 52.3061 19.0047 54.7609 21.1807C56.9449 23.1216 59.848 24.3032 63.0315 24.3032C66.2149 24.3032 69.0951 23.1309 71.2753 21.2067V26.6718H54.1811C52.2603 26.6718 50.7039 28.1831 50.7039 30.048V34.1742C50.7039 35.7354 52.0066 37.0003 53.6146 37.0003H75.3705V33.1982H54.6198V30.4758H72.1031C73.9075 30.4758 75.3705 29.0553 75.3705 27.3034V1.37012H71.2753V3.57397V3.57582Z" fill="#3A78F8"/>
<path d="M94.7572 1.37574V14.5819C94.7572 15.7359 94.4703 16.7832 93.8984 17.7237C93.3322 18.6548 92.5691 19.393 91.6166 19.9456C91.6032 19.9513 91.5879 19.9569 91.5745 19.9644C90.6239 20.517 89.5604 20.7943 88.3861 20.7962C87.2117 20.7962 86.1482 20.517 85.1976 19.9644C85.1823 19.955 85.1689 19.9513 85.1555 19.9456C84.2011 19.393 83.4399 18.6548 82.8737 17.7237C82.2999 16.7832 82.0149 15.7359 82.0149 14.5819V1.37012H78.1111V15.4231C78.1111 17.1392 78.5339 18.6941 79.3773 20.0899C80.2208 21.4856 81.3608 22.5966 82.7934 23.4247C84.226 24.2509 86.0602 24.6668 88.7743 24.6668C90.5091 24.6668 92.5519 24.2528 93.9845 23.4247C95.4171 22.5985 96.557 21.4856 97.4005 20.0899C98.244 18.6941 98.6667 17.1392 98.6667 15.4231V1.37574H94.7629H94.7572Z" fill="#3A78F8"/>
</svg>
